<svg width="66" height="66" viewBox="0 0 66 66" fill="none" xmlns="http://www.w3.org/2000/svg">
<rect x="-6.10352e-05" width="65.7414" height="65.7414" rx="32.8707" fill="white"/>
<g clip-path="url(#clip0_2_129)">
<g clip-path="url(#clip1_2_129)">
<path d="M34.0311 42.2614H31.71C31.6066 42.2614 31.5074 42.2212 31.4343 42.1496C31.3612 42.0781 31.3201 41.9811 31.3201 41.8799V23.4542C31.3201 23.052 31.4834 22.6662 31.7742 22.3817C32.065 22.0972 32.4594 21.9374 32.8706 21.9374C33.2818 21.9374 33.6762 22.0972 33.967 22.3817C34.2577 22.6662 34.4211 23.052 34.4211 23.4542V41.8803C34.421 41.9814 34.3799 42.0783 34.3067 42.1498C34.2336 42.2212 34.1345 42.2614 34.0311 42.2614ZM32.1 41.4984H33.6412V23.4542C33.6412 23.2543 33.56 23.0626 33.4155 22.9212C33.271 22.7798 33.075 22.7004 32.8706 22.7004C32.6662 22.7004 32.4702 22.7798 32.3257 22.9212C32.1812 23.0626 32.1 23.2543 32.1 23.4542V41.4984Z" fill="#D0A144"/>
<path d="M23.4723 27.0517H22.1336C21.8159 27.0461 21.5133 26.9188 21.2906 26.6971C21.068 26.4753 20.9433 26.177 20.9433 25.8662C20.9433 25.5554 21.068 25.2571 21.2906 25.0354C21.5133 24.8136 21.8159 24.6863 22.1336 24.6807H23.2824C23.3859 24.6807 23.485 24.7209 23.5582 24.7925C23.6313 24.864 23.6724 24.961 23.6724 25.0622C23.6724 25.1634 23.6313 25.2604 23.5582 25.332C23.485 25.4035 23.3859 25.4437 23.2824 25.4437H22.1336C22.0213 25.447 21.9147 25.493 21.8365 25.5718C21.7582 25.6507 21.7145 25.7563 21.7145 25.8662C21.7145 25.9761 21.7582 26.0817 21.8365 26.1606C21.9147 26.2394 22.0213 26.2854 22.1336 26.2887H23.4723C23.5758 26.2887 23.675 26.3289 23.7481 26.4004C23.8212 26.472 23.8623 26.569 23.8623 26.6702C23.8623 26.7714 23.8212 26.8684 23.7481 26.94C23.675 27.0115 23.5758 27.0517 23.4723 27.0517Z" fill="#D0A144"/>
<path d="M31.7101 27.0517H25.8313C25.7279 27.0517 25.6287 27.0115 25.5556 26.94C25.4824 26.8684 25.4413 26.7714 25.4413 26.6702C25.4413 26.569 25.4824 26.472 25.5556 26.4004C25.6287 26.3289 25.7279 26.2887 25.8313 26.2887H31.3201V25.4437H26.0208C25.9174 25.4437 25.8182 25.4035 25.7451 25.332C25.672 25.2604 25.6309 25.1634 25.6309 25.0622C25.6309 24.961 25.672 24.864 25.7451 24.7925C25.8182 24.7209 25.9174 24.6807 26.0208 24.6807H31.7101C31.8135 24.6807 31.9127 24.7209 31.9858 24.7925C32.059 24.864 32.1001 24.961 32.1001 25.0622V26.6702C32.1001 26.7714 32.059 26.8684 31.9858 26.94C31.9127 27.0115 31.8135 27.0517 31.7101 27.0517Z" fill="#D0A144"/>
<path d="M39.825 27.0517H34.0313C33.9278 27.0517 33.8286 27.0115 33.7555 26.94C33.6824 26.8684 33.6413 26.7714 33.6413 26.6702V25.0622C33.6413 24.961 33.6824 24.864 33.7555 24.7925C33.8286 24.7209 33.9278 24.6807 34.0313 24.6807H39.6355C39.7389 24.6807 39.8381 24.7209 39.9113 24.7925C39.9844 24.864 40.0255 24.961 40.0255 25.0622C40.0255 25.1634 39.9844 25.2604 39.9113 25.332C39.8381 25.4035 39.7389 25.4437 39.6355 25.4437H34.4212V26.2887H39.825C39.9285 26.2887 40.0277 26.3289 40.1008 26.4004C40.1739 26.472 40.215 26.569 40.215 26.6702C40.215 26.7714 40.1739 26.8684 40.1008 26.94C40.0277 27.0115 39.9285 27.0517 39.825 27.0517Z" fill="#D0A144"/>
<path d="M43.6037 27.0517H42.2688C42.1654 27.0517 42.0662 27.0115 41.9931 26.94C41.92 26.8684 41.8789 26.7714 41.8789 26.6702C41.8789 26.569 41.92 26.472 41.9931 26.4004C42.0662 26.3289 42.1654 26.2887 42.2688 26.2887H43.6037C43.716 26.2854 43.8226 26.2394 43.9008 26.1606C43.9791 26.0817 44.0228 25.9761 44.0228 25.8662C44.0228 25.7563 43.9791 25.6507 43.9008 25.5718C43.8226 25.493 43.716 25.447 43.6037 25.4437H42.4611C42.3577 25.4437 42.2585 25.4035 42.1854 25.332C42.1122 25.2604 42.0711 25.1634 42.0711 25.0622C42.0711 24.961 42.1122 24.864 42.1854 24.7925C42.2585 24.7209 42.3577 24.6807 42.4611 24.6807H43.6037C43.9213 24.6863 44.224 24.8136 44.4467 25.0354C44.6693 25.2571 44.794 25.5554 44.794 25.8662C44.794 26.177 44.6693 26.4753 44.4467 26.6971C44.224 26.9188 43.9213 27.0461 43.6037 27.0517Z" fill="#D0A144"/>
<path d="M37.8098 44.7167H27.9318C27.8727 44.7167 27.8142 44.7034 27.761 44.678C27.7078 44.6527 27.6613 44.6157 27.6248 44.5701C27.5884 44.5245 27.563 44.4714 27.5507 44.4147C27.5383 44.3581 27.5393 44.2995 27.5536 44.2433C27.7144 43.4888 28.1284 42.8086 28.7299 42.3109C29.3314 41.8132 30.0858 41.5265 30.873 41.4965H34.8686C35.6558 41.5265 36.4102 41.8132 37.0117 42.3109C37.6132 42.8086 38.0272 43.4888 38.188 44.2433C38.2023 44.2995 38.2033 44.3581 38.191 44.4147C38.1786 44.4714 38.1533 44.5245 38.1168 44.5701C38.0803 44.6157 38.0338 44.6527 37.9806 44.678C37.9274 44.7034 37.8689 44.7167 37.8098 44.7167ZM28.4712 43.9537H37.2704C37.0848 43.4717 36.7579 43.054 36.3306 42.7529C35.9034 42.4519 35.3948 42.2809 34.8686 42.2614H30.873C30.3468 42.2809 29.8382 42.4519 29.411 42.7529C28.9837 43.054 28.6568 43.4717 28.4712 43.9537Z" fill="#D0A144"/>
<path d="M38.8656 44.7166H26.8756C26.7722 44.7166 26.673 44.6764 26.5999 44.6049C26.5267 44.5333 26.4857 44.4363 26.4857 44.3351C26.4857 44.2339 26.5267 44.1369 26.5999 44.0653C26.673 43.9938 26.7722 43.9536 26.8756 43.9536H38.8656C38.969 43.9536 39.0682 43.9938 39.1413 44.0653C39.2145 44.1369 39.2556 44.2339 39.2556 44.3351C39.2556 44.4363 39.2145 44.5333 39.1413 44.6049C39.0682 44.6764 38.969 44.7166 38.8656 44.7166Z" fill="#D0A144"/>
<path d="M46.1296 36.6171H36.0524C35.9871 36.6172 35.9229 36.6012 35.8656 36.5706C35.8082 36.5401 35.7597 36.496 35.7243 36.4423C35.689 36.3886 35.6679 36.3271 35.6632 36.2634C35.6585 36.1997 35.6701 36.1358 35.6972 36.0777L39.979 26.8556C40.0001 26.8098 40.0302 26.7686 40.0676 26.7342C40.105 26.6999 40.149 26.6731 40.197 26.6554C40.245 26.6377 40.2961 26.6294 40.3474 26.6311C40.3986 26.6327 40.4491 26.6442 40.4958 26.665C40.5425 26.6858 40.5846 26.7153 40.6196 26.752C40.6546 26.7887 40.6818 26.8318 40.6998 26.8788C40.7178 26.9258 40.7261 26.9758 40.7242 27.0259C40.7224 27.0761 40.7105 27.1254 40.6892 27.171L36.6577 35.8542H45.5228L41.4948 27.171C41.4737 27.1254 41.4619 27.0761 41.4602 27.0261C41.4586 26.976 41.467 26.9261 41.485 26.8792C41.503 26.8323 41.5303 26.7893 41.5653 26.7527C41.6003 26.7161 41.6424 26.6866 41.689 26.666C41.7357 26.6453 41.786 26.6338 41.8372 26.6321C41.8884 26.6305 41.9395 26.6387 41.9874 26.6563C42.0354 26.674 42.0793 26.7007 42.1167 26.7349C42.1541 26.7692 42.1842 26.8103 42.2054 26.8559L46.4829 36.0781C46.5098 36.1361 46.5214 36.1997 46.5167 36.2632C46.512 36.3267 46.4912 36.388 46.456 36.4416C46.4209 36.4952 46.3727 36.5393 46.3156 36.57C46.2586 36.6006 46.1947 36.6168 46.1296 36.6171Z" fill="#D0A144"/>
<path d="M41.1309 41.4831H41.0498C37.9273 41.4831 35.6608 39.2765 35.6608 36.236C35.6608 36.1349 35.7019 36.0378 35.775 35.9663C35.8482 35.8947 35.9474 35.8546 36.0508 35.8546H46.1295C46.233 35.8546 46.3321 35.8947 46.4053 35.9663C46.4784 36.0378 46.5195 36.1349 46.5195 36.236C46.5195 39.2784 44.253 41.4831 41.1309 41.4831ZM36.4544 36.6175C36.6283 39.0522 38.4686 40.7201 41.0498 40.7201H41.1309C43.7117 40.7201 45.5524 39.0522 45.7259 36.6175H36.4544Z" fill="#D0A144"/>
<path d="M41.0904 27.5957C40.7112 27.5958 40.3405 27.4859 40.0251 27.2798C39.7098 27.0738 39.464 26.7809 39.3189 26.4382C39.1737 26.0955 39.1357 25.7184 39.2097 25.3545C39.2837 24.9907 39.4663 24.6565 39.7344 24.3942C40.0025 24.1319 40.3441 23.9533 40.7161 23.8809C41.088 23.8086 41.4735 23.8457 41.8238 23.9877C42.1741 24.1297 42.4735 24.3702 42.6841 24.6786C42.8947 24.9871 43.0071 25.3497 43.007 25.7207C43.0064 26.2178 42.8043 26.6944 42.445 27.0459C42.0857 27.3974 41.5985 27.5951 41.0904 27.5957ZM41.0904 24.6083C40.8654 24.6082 40.6455 24.6734 40.4585 24.7956C40.2714 24.9178 40.1256 25.0915 40.0395 25.2947C39.9534 25.498 39.9308 25.7217 39.9746 25.9375C40.0185 26.1533 40.1267 26.3516 40.2857 26.5072C40.4448 26.6628 40.6474 26.7688 40.868 26.8117C41.0886 26.8547 41.3172 26.8327 41.525 26.7485C41.7328 26.6643 41.9105 26.5217 42.0354 26.3388C42.1604 26.1558 42.2271 25.9407 42.2271 25.7207C42.2268 25.4258 42.1069 25.1431 41.8938 24.9346C41.6807 24.726 41.3918 24.6087 41.0904 24.6083Z" fill="#D0A144"/>
<path d="M29.6886 36.6172H19.6118C19.5465 36.6172 19.4823 36.6012 19.4251 36.5706C19.3678 36.54 19.3193 36.4958 19.284 36.4422C19.2487 36.3885 19.2277 36.327 19.2229 36.2633C19.2182 36.1997 19.2299 36.1359 19.2569 36.0778L23.5395 26.8556C23.5823 26.7634 23.6608 26.6917 23.7576 26.6561C23.8545 26.6205 23.9618 26.624 24.0561 26.6658C24.1503 26.7077 24.2237 26.7844 24.26 26.8792C24.2964 26.9739 24.2928 27.0789 24.2501 27.1711L20.2186 35.8542H29.0837L25.0557 27.1711C25.0333 27.1253 25.0205 27.0756 25.018 27.0249C25.0155 26.9742 25.0233 26.9236 25.0411 26.8759C25.0588 26.8282 25.0862 26.7844 25.1214 26.7472C25.1567 26.71 25.1992 26.68 25.2464 26.659C25.2937 26.638 25.3447 26.6265 25.3966 26.6251C25.4485 26.6237 25.5001 26.6324 25.5485 26.6507C25.5968 26.6691 25.641 26.6967 25.6783 26.7319C25.7157 26.7672 25.7454 26.8094 25.7659 26.856L30.0438 36.0782C30.0708 36.1363 30.0824 36.2001 30.0776 36.2637C30.0728 36.3274 30.0518 36.3888 30.0164 36.4424C29.9811 36.4961 29.9326 36.5402 29.8753 36.5707C29.818 36.6012 29.7538 36.6172 29.6886 36.6172Z" fill="#D0A144"/>
<path d="M24.6914 41.4831H24.6103C21.4882 41.4831 19.2217 39.2784 19.2217 36.236C19.2217 36.1349 19.2628 36.0378 19.336 35.9663C19.4091 35.8947 19.5083 35.8546 19.6117 35.8546H29.6905C29.7939 35.8546 29.8931 35.8947 29.9662 35.9663C30.0393 36.0378 30.0804 36.1349 30.0804 36.236C30.0804 39.2784 27.8139 41.4831 24.6914 41.4831ZM20.0153 36.6175C20.1889 39.0522 22.0295 40.7201 24.6103 40.7201H24.6914C27.2726 40.7201 29.1129 39.0522 29.2868 36.6175H20.0153Z" fill="#D0A144"/>
<path d="M24.6508 27.5957C24.2716 27.5957 23.901 27.4857 23.5857 27.2796C23.2704 27.0736 23.0247 26.7806 22.8796 26.4379C22.7345 26.0952 22.6966 25.7181 22.7706 25.3543C22.8446 24.9905 23.0272 24.6563 23.2954 24.3941C23.5635 24.1318 23.9052 23.9532 24.2771 23.8809C24.649 23.8086 25.0344 23.8458 25.3847 23.9878C25.735 24.1298 26.0344 24.3702 26.245 24.6787C26.4556 24.9871 26.568 25.3498 26.5679 25.7207C26.5673 26.2179 26.3651 26.6945 26.0057 27.046C25.6463 27.3975 25.159 27.5952 24.6508 27.5957ZM24.6508 24.6083C24.4259 24.6083 24.2061 24.6735 24.0191 24.7958C23.8321 24.918 23.6863 25.0917 23.6002 25.295C23.5142 25.4983 23.4916 25.7219 23.5355 25.9377C23.5794 26.1535 23.6877 26.3517 23.8467 26.5073C24.0058 26.6629 24.2084 26.7688 24.429 26.8118C24.6496 26.8547 24.8782 26.8326 25.086 26.7485C25.2938 26.6643 25.4714 26.5217 25.5963 26.3387C25.7213 26.1558 25.788 25.9407 25.788 25.7207C25.7877 25.4258 25.6678 25.143 25.4546 24.9344C25.2414 24.7259 24.9523 24.6086 24.6508 24.6083Z" fill="#D0A144"/>
</g>
</g>
<defs>
<clipPath id="clip0_2_129">
<rect width="29.2184" height="24.0622" fill="white" transform="translate(18.2614 21.0007)"/>
</clipPath>
<clipPath id="clip1_2_129">
<rect width="27.3923" height="22.8269" fill="white" transform="translate(19.1745 21.9138)"/>
</clipPath>
</defs>
</svg>
